<?xml version="1.0"?>
<!DOCTYPE svg PUBLIC "-//W3C//DTD SVG 1.1//EN"
"http://www.w3.org/Graphics/SVG/1.1/DTD/svg11.dtd">
<svg version="1.1" xmlns="http://www.w3.org/2000/svg"
xmlns:xlink="http://www.w3.org/1999/xlink"
width="800px" height="600px"
viewBox="0 0 800 600"
preserveAspectRatio="xMidYMid">

<defs>
<g id = "triangle" stroke = "none">
<polygon points = "0,100 100,100 50,0" />
</g>

<g id = "rectangle" stroke = "none" fill="red">
<rect width = "100" height = "10" />
</g>

<g id = "polygon" stroke = "black" stroke-width="3" fill="none">
<polygon points = "0,100 100,50 100,-50 0,-100 -100,-50 -100,50 0,100" />
<line x1="0" y1="-100" x2="0" y2="100"/>
<line x1="100" y1="50" x2="-100" y2="-50"/>
<line x1="-100" y1="50" x2="100" y2="-50"/>
<animateTransform attributeName = "transform" type="rotate" from = "0 1 1" to = "360 1 1" dur = "10s" repeatCount="indefinite"/>
</g>
</defs>

<!-- srodkowa figura-->
<use xlink:href = "#polygon" transform = "translate(280,380) scale(0.8,0.8)"/>
<use xlink:href = "#polygon" transform = "translate(545,430) scale(0.8,0.8)"/>
<use xlink:href = "#rectangle" transform = "translate(270,370) scale(3,2) rotate(15)"/>
<use xlink:href = "#triangle" transform = "translate(370,400) scale(0.7,2)" fill="blue" />

<!-- lewa figura-->
<use xlink:href = "#polygon" transform = "translate(95,140) scale(0.7,0.7)"/>
<use xlink:href = "#polygon" transform = "translate(315,175) scale(0.7,0.7)"/>
<use xlink:href = "#rectangle" transform = "translate(90,130) scale(2.5,1.5) rotate(15)"/>
<use xlink:href = "#triangle" transform = "translate(170,150) scale(0.6,1.5)" fill="purple" />

<!-- prawa figura-->
<use xlink:href = "#polygon" transform = "translate(530,110) scale(0.6,0.6)"/>
<use xlink:href = "#polygon" transform = "translate(700,135) scale(0.6,0.6)"/>
<use xlink:href = "#rectangle" transform = "translate(520,100) scale(2,1.2) rotate(15)"/>
<use xlink:href = "#triangle" transform = "translate(590,120) scale(0.5,1.2)" fill="green" />

<rect x="0" y="0" width="800" height="600" stroke="blue" fill="none" stroke-width="1"/>

</svg>